<svg width="170" height="33" viewBox="0 0 170 33" fill="none" xmlns="http://www.w3.org/2000/svg">
<g clip-path="url(#clip0_154:1373)">
<path d="M151.271 13.6367C152.791 12.1123 153.571 10.0524 153.571 8.03369H145.685L140.099 13.6367C143.221 16.7266 148.19 16.7266 151.271 13.6367Z" fill="#44A391"/>
<path d="M151.271 2.43073C148.93 0.0824185 145.521 -0.453162 142.687 0.700396L145.685 7.99253H153.571C153.571 6.015 152.832 3.99628 151.271 2.43073Z" fill="#65AFA5"/>
<path d="M140.14 2.43078C137.06 5.52066 137.06 10.5057 140.14 13.5956L145.726 7.99257L142.728 0.700439C141.742 1.11242 140.879 1.6892 140.14 2.43078Z" fill="#7CB9B2"/>
<path d="M156.569 18.9101C155.05 20.4344 154.269 22.4943 154.269 24.5131H162.155L167.741 18.9101C164.619 15.8202 159.609 15.8202 156.569 18.9101Z" fill="#A5335C"/>
<path d="M156.569 30.0749C158.91 32.4232 162.319 32.9588 165.153 31.8052L162.155 24.5131H154.269C154.228 26.4906 155.008 28.5505 156.569 30.0749Z" fill="#8B133D"/>
<path d="M167.7 30.075C170.78 26.9851 170.78 22 167.7 18.9102L162.114 24.5132L165.112 31.8053C166.057 31.3933 166.919 30.8165 167.7 30.075Z" fill="#790E2D"/>
<path d="M167.7 13.6367L162.114 8.03369H154.228C154.228 10.0524 155.008 12.0711 156.528 13.6367C159.609 16.7266 164.619 16.7266 167.7 13.6367Z" fill="#E4AC34"/>
<path d="M167.7 2.43078C166.961 1.6892 166.057 1.11242 165.153 0.700439L162.155 7.99257L167.741 13.5956C170.78 10.5469 170.78 5.52066 167.7 2.43078Z" fill="#E7B858"/>
<path d="M156.569 2.43079C155.05 3.95514 154.269 6.01506 154.269 8.03379H162.155L165.153 0.741656C162.278 -0.453101 158.869 0.123678 156.569 2.43079Z" fill="#EDCB84"/>
<path d="M140.14 18.9101L145.726 24.5131H153.612C153.612 22.4943 152.832 20.4756 151.312 18.9101C148.19 15.8202 143.221 15.8202 140.14 18.9101Z" fill="#2170A0"/>
<path d="M151.271 30.0749C152.791 28.5506 153.571 26.4907 153.571 24.4719H145.685L142.687 31.7641C145.562 32.9588 148.971 32.382 151.271 30.0749Z" fill="#254369"/>
<path d="M140.14 18.9102C137.06 22 137.06 26.9851 140.14 30.075C140.879 30.8165 141.783 31.3933 142.687 31.8053L145.685 24.5132L140.14 18.9102Z" fill="#22537E"/>
<path d="M16.388 0.082397C18.647 0.082397 20.7828 0.494382 22.7543 1.35955C24.7669 2.22472 26.4919 3.41948 28.0116 4.86142L23.4115 9.55805C21.44 7.62172 19.1399 6.63296 16.4291 6.63296C13.7183 6.63296 11.3771 7.62172 9.4878 9.55805C7.55738 11.4944 6.61271 13.8427 6.61271 16.5618C6.61271 19.2809 7.59845 21.6292 9.4878 23.5655C11.4182 25.5019 13.7183 26.4494 16.4291 26.4494C19.1399 26.4494 21.481 25.4607 23.4115 23.5243L28.0527 28.1798C26.533 29.6629 24.7669 30.8577 22.7954 31.7228C20.7828 32.588 18.6881 33 16.4291 33C11.9111 33 8.05025 31.3933 4.80551 28.1798C1.60184 24.9251 0 21.0524 0 16.5206C0 11.9888 1.60184 8.11611 4.80551 4.86142C8.05025 1.60674 11.9111 0 16.4291 0L16.388 0.082397Z" fill="#254369"/>
<path d="M48.9998 0.164795V6.67416H36.0208V13.2247H45.755V19.7341H36.0208V26.2435V32.794H29.4902V19.7341V13.2247V0.164795H48.9998Z" fill="#254369"/>
<path d="M56.8036 9.47566C54.8732 11.412 53.9285 13.7603 53.9285 16.4794C53.9285 19.1985 54.9143 21.5468 56.8036 23.4831C58.734 25.4195 61.0341 26.367 63.786 26.367C66.4968 26.367 68.7968 25.3783 70.7272 23.4831C72.6577 21.5468 73.6434 19.2397 73.6434 16.4794C73.6434 13.7603 72.6577 11.4532 70.7272 9.47566C68.7968 7.53933 66.4557 6.55056 63.786 6.55056C61.0341 6.59176 58.6929 7.53933 56.8036 9.47566ZM75.3685 4.86142C78.6132 8.11611 80.215 11.9888 80.215 16.5206C80.215 21.0524 78.6132 24.9251 75.3685 28.1386C72.1237 31.3521 68.2629 32.9588 63.7449 32.9588C59.2269 32.9588 55.3661 31.3521 52.1213 28.1386C48.9176 24.9251 47.3158 21.0524 47.3158 16.5206C47.3158 11.9888 48.9176 8.11611 52.1213 4.86142C55.3661 1.60674 59.2269 0 63.7449 0C68.2629 0 72.1648 1.60674 75.3685 4.86142Z" fill="#254369"/>
<path d="M107.446 0.164795V13.2659V19.8165C107.446 23.4419 106.173 26.5318 103.627 29.1273C101.08 31.6817 97.9585 32.9588 94.3852 32.9588C90.7708 32.9588 87.6903 31.6817 85.1027 29.1273C82.5562 26.573 81.283 23.4419 81.283 19.8165V13.2659V0.164795H87.8546V13.2659V19.1161V19.7753C87.8546 21.588 88.5118 23.1124 89.785 24.3895C91.0583 25.6667 92.578 26.3258 94.3852 26.3258C96.1513 26.3258 97.712 25.6667 98.9853 24.3895C100.259 23.1124 100.916 21.588 100.916 19.7753V19.1161V13.2659V0.164795H107.446Z" fill="#254369"/>
<path d="M120.179 15.8614C121.534 15.8614 122.232 15.5318 123.177 14.5842C124.122 13.6366 124.45 12.5243 124.45 11.1647C124.45 9.84638 124.122 8.94001 123.177 7.95125C122.232 6.96249 120.548 6.6329 119.193 6.6329H115.538V15.8202L120.179 15.8614ZM109.007 0.123535H119.563C122.684 0.123535 125.765 1.23589 128.024 3.46061C130.283 5.72653 131.186 7.82766 131.186 10.9587V11.9475C131.186 14.3782 130.488 16.1498 129.133 18.0861C127.777 20.0224 126.627 20.5992 124.491 21.4232L131.843 32.7939H123.875L115.579 20.0224V32.7939H109.048L109.007 0.123535Z" fill="#254369"/>
</g>
<defs>
<clipPath id="clip0_154:1373">
<rect width="170" height="33" fill="white"/>
</clipPath>
</defs>
</svg>
